<?xml version="1.0" encoding="utf-8" ?>
<svg baseProfile="tiny" height="500px" version="1.2" width="500px" xmlns="http://www.w3.org/2000/svg" xmlns:ev="http://www.w3.org/2001/xml-events" xmlns:xlink="http://www.w3.org/1999/xlink"><defs /><circle cx="250" cy="250" fill="cyan" fill-opacity="0.9" r="40" /><polygon fill="none" points="336.6025,300.0 250.0,350.0 163.3975,300.0 163.3975,200.0 250.0,150.0 336.6025,200.0" stroke="white" stroke-width="2" /><circle cx="250" cy="250" fill="none" r="90" stroke="skyblue" stroke-dasharray="3,3" stroke-width="1" /><circle cx="250" cy="250" fill="none" r="150" stroke="skyblue" stroke-dasharray="3,3" stroke-width="1" /><circle cx="250" cy="250" fill="none" r="180" stroke="deepskyblue" stroke-dasharray="5,5" stroke-width="2" /><polygon fill="mediumorchid" points="260,90 270,110 250,120 230,110 240,90" stroke="violet" stroke-width="1" /><polygon fill="mediumorchid" points="420,250 430,270 410,280 390,270 400,250" stroke="violet" stroke-width="1" /><polygon fill="mediumorchid" points="100,250 110,270 90,280 70,270 80,250" stroke="violet" stroke-width="1" /><polygon fill="mediumorchid" points="260,410 270,430 250,440 230,430 240,410" stroke="violet" stroke-width="1" /><text fill="white" font-family="monospace" font-size="14px" text-anchor="middle" x="250" y="490">PHANTASMAL SHEATH</text></svg>